<svg xmlns="http://www.w3.org/2000/svg" viewBox="0 0 400 300" preserveAspectRatio="xMidYMid slice">
  <defs>
    <linearGradient id="g-cutting-2" x1="0" y1="0" x2="1" y2="1">
      <stop offset="0" stop-color="#0D4A31"/>
      <stop offset="1" stop-color="#0B0C0E"/>
    </linearGradient>
    <pattern id="diag-cutting-2" width="18" height="18" patternTransform="rotate(45)" patternUnits="userSpaceOnUse">
      <rect width="18" height="9" fill="#14171A" opacity="0.12"/>
    </pattern>
  </defs>
  <rect width="400" height="300" fill="url(#g-cutting-2)"/>
  <rect width="400" height="300" fill="url(#diag-cutting-2)"/>
  <rect x="8" y="8" width="384" height="284" rx="6" fill="none" stroke="#F2790C" stroke-width="2" opacity="0.8"/>
  
    <circle cx="18" cy="18" r="4" fill="#F2790C"/>
    <circle cx="382" cy="18" r="4" fill="#F2790C"/>
    <circle cx="18" cy="282" r="4" fill="#F2790C"/>
    <circle cx="382" cy="282" r="4" fill="#F2790C"/>
  
    <rect x="24" y="24" width="220" height="34" rx="4" fill="#0B0C0E" opacity="0.85"/>
    <text x="36" y="47" font-family="'IBM Plex Mono',monospace" font-size="14" letter-spacing="1" fill="#F2790C">03 · WELDING IN PROGRESS</text>
  <g transform="translate(200,168)" stroke="#F5F6F4" stroke-width="7" fill="none" stroke-linecap="round" stroke-linejoin="round" opacity="0.92">
    <path d="M-38 -30 L26 34 M-30 -38 L34 26 M18 -34 L34 -18 M-34 18 L-18 34 M-4 -4 L8 8"/>
  </g>
  <g transform="translate(268,120)" fill="#F2790C" opacity="0.9">
    <circle r="6" fill="#F5F6F4"/>
    <circle cx="16" cy="-10" r="2.4"/>
    <circle cx="22" cy="6" r="2"/>
    <circle cx="-4" cy="-16" r="1.8"/>
    <circle cx="8" cy="18" r="2"/>
  </g>
  <rect x="24" y="252" width="352" height="2" fill="#F2790C" opacity="0.6"/>
  <text x="24" y="244" font-family="'Oswald','Arial Narrow',sans-serif" font-size="18" letter-spacing="2" fill="#F5F6F4">CUTTING &amp; GROOVING</text>
</svg>