<svg xmlns="http://www.w3.org/2000/svg" viewBox="0 0 400 300" preserveAspectRatio="xMidYMid slice">
  <defs>
    <linearGradient id="cg-cutting" x1="0" y1="0" x2="1" y2="1">
      <stop offset="0" stop-color="#146B47"/>
      <stop offset="1" stop-color="#0B0C0E"/>
    </linearGradient>
    <pattern id="cdiag-cutting" width="20" height="20" patternTransform="rotate(45)" patternUnits="userSpaceOnUse">
      <rect width="20" height="10" fill="#14171A" opacity="0.15"/>
    </pattern>
  </defs>
  <rect width="400" height="300" fill="url(#cg-cutting)"/>
  <rect width="400" height="300" fill="url(#cdiag-cutting)"/>
  <rect x="8" y="8" width="384" height="284" rx="6" fill="none" stroke="#F2790C" stroke-width="2.5" opacity="0.9"/>
  <circle cx="18" cy="18" r="4" fill="#F2790C"/>
  <circle cx="382" cy="18" r="4" fill="#F2790C"/>
  <circle cx="18" cy="282" r="4" fill="#F2790C"/>
  <circle cx="382" cy="282" r="4" fill="#F2790C"/>
  <g transform="translate(200,140) scale(1.15)" stroke="#F5F6F4" stroke-width="7" fill="none" stroke-linecap="round" stroke-linejoin="round">
    <path d="M-38 -30 L26 34 M-30 -38 L34 26 M18 -34 L34 -18 M-34 18 L-18 34 M-4 -4 L8 8"/>
  </g>
  <g transform="translate(280,90)" fill="#F2790C">
    <circle r="7" fill="#F5F6F4"/>
    <circle cx="18" cy="-12" r="3"/>
    <circle cx="26" cy="8" r="2.4"/>
    <circle cx="-6" cy="-20" r="2"/>
    <circle cx="10" cy="22" r="2.2"/>
  </g>
</svg>