<svg xmlns="http://www.w3.org/2000/svg" viewBox="0 0 400 300" preserveAspectRatio="xMidYMid slice">
  <defs>
    <linearGradient id="cg-factory" x1="0" y1="0" x2="1" y2="1">
      <stop offset="0" stop-color="#146B47"/>
      <stop offset="1" stop-color="#0B0C0E"/>
    </linearGradient>
    <pattern id="cdiag-factory" width="20" height="20" patternTransform="rotate(45)" patternUnits="userSpaceOnUse">
      <rect width="20" height="10" fill="#14171A" opacity="0.15"/>
    </pattern>
  </defs>
  <rect width="400" height="300" fill="url(#cg-factory)"/>
  <rect width="400" height="300" fill="url(#cdiag-factory)"/>
  <rect x="8" y="8" width="384" height="284" rx="6" fill="none" stroke="#F2790C" stroke-width="2.5" opacity="0.9"/>
  <circle cx="18" cy="18" r="4" fill="#F2790C"/>
  <circle cx="382" cy="18" r="4" fill="#F2790C"/>
  <circle cx="18" cy="282" r="4" fill="#F2790C"/>
  <circle cx="382" cy="282" r="4" fill="#F2790C"/>
  <g transform="translate(200,140) scale(1.15)" stroke="#F5F6F4" stroke-width="7" fill="none" stroke-linecap="round" stroke-linejoin="round">
    <path d="M-44 30 L-44 -6 L-22 -18 L-22 -6 L0 -18 L0 -6 L22 -18 L22 30 Z M-44 30 L34 30 L34 6 L22 6 M-30 6 L-30 16 M-10 6 L-10 16 M10 6 L10 16"/>
  </g>
  <g transform="translate(280,90)" fill="#F2790C">
    <circle r="7" fill="#F5F6F4"/>
    <circle cx="18" cy="-12" r="3"/>
    <circle cx="26" cy="8" r="2.4"/>
    <circle cx="-6" cy="-20" r="2"/>
    <circle cx="10" cy="22" r="2.2"/>
  </g>
</svg>